<?xml version="1.0" encoding="UTF-8"?>
<!DOCTYPE svg PUBLIC "-//W3C//DTD SVG 1.1//EN" "http://www.w3.org/Graphics/SVG/1.1/DTD/svg11.dtd">
<!-- Creator: CorelDRAW 2020 (64 Bit) -->
<svg xmlns="http://www.w3.org/2000/svg" xml:space="preserve" width="3.2cm" height="3.2cm" version="1.1" shape-rendering="geometricPrecision" text-rendering="geometricPrecision" image-rendering="optimizeQuality" fill-rule="evenodd" clip-rule="evenodd"
viewBox="0 0 3200 3200"
 xmlns:xlink="http://www.w3.org/1999/xlink"
 xmlns:xodm="http://www.corel.com/coreldraw/odm/2003">
 <defs>
   <clipPath id="id0">
    <path d="M355.39 25.22l2345.29 0c181.6,0 330.15,148.57 330.15,330.16l0 2353.79c0,181.59 -148.55,330.15 -330.15,330.15l-2345.29 0c-181.6,0 -330.16,-148.56 -330.16,-330.15l0 -2353.79c0,-181.59 148.56,-330.16 330.16,-330.16z"/>
   </clipPath>
    <clipPath id="id1">
     <path d="M355.39 25.22l2345.29 0c181.6,0 330.15,148.57 330.15,330.16l0 2353.79c0,181.59 -148.55,330.15 -330.15,330.15l-2345.29 0c-181.6,0 -330.16,-148.56 -330.16,-330.15l0 -2353.79c0,-181.59 148.56,-330.16 330.16,-330.16z"/>
    </clipPath>
    <clipPath id="id2">
     <path d="M355.39 25.22l2345.29 0c181.6,0 330.15,148.57 330.15,330.16l0 2353.79c0,181.59 -148.55,330.15 -330.15,330.15l-2345.29 0c-181.6,0 -330.16,-148.56 -330.16,-330.15l0 -2353.79c0,-181.59 148.56,-330.16 330.16,-330.16z"/>
    </clipPath>
 </defs>
 <g id="Camada_x0020_1">
  <metadata id="CorelCorpID_0Corel-Layer"/>
  <path fill="none" stroke="#E06722" stroke-width="20" stroke-miterlimit="22.9256" d="M607.13 219.54l2167.48 0c216.9,0 392.79,175.89 392.79,392.79l0 2167.48c0,216.89 -175.89,392.78 -392.79,392.78l-2167.48 0.01c-216.89,-0.01 -392.78,-175.9 -392.78,-392.8l-0.01 -2167.47c0.01,-216.9 175.9,-392.79 392.8,-392.79l-0.01 0z"/>
  <g>
  </g>
  <g clip-path="url(#id0)">
   <g>
   </g>
   <g clip-path="url(#id1)">
    <image x="25.23" y="-470.76" width="3005.59" height="4006.07" xlink:href="perfil-luan_Images\perfil-luan_ImgID1.png"/>
   </g>
   <g clip-path="url(#id2)">
   </g>
  </g>
  <path fill="none" d="M355.39 25.22l2345.29 0c181.6,0 330.15,148.57 330.15,330.16l0 2353.79c0,181.59 -148.55,330.15 -330.15,330.15l-2345.29 0c-181.6,0 -330.16,-148.56 -330.16,-330.15l0 -2353.79c0,-181.59 148.56,-330.16 330.16,-330.16z"/>
 </g>
</svg>
